<?xml version="1.0" encoding="UTF-8" standalone="no"?>
<svg
   version="1.1"
   width="256"
   height="256"
   viewBox="0 0 256 256"
   xml:space="preserve"
   id="svg1"
   sodipodi:docname="key-white.svg"
   inkscape:version="1.4.2 (ebf0e940d0, 2025-05-08)"
   xmlns:inkscape="http://www.inkscape.org/namespaces/inkscape"
   xmlns:sodipodi="http://sodipodi.sourceforge.net/DTD/sodipodi-0.dtd"
   xmlns="http://www.w3.org/2000/svg"
   xmlns:svg="http://www.w3.org/2000/svg"><defs
   id="defs1" /><sodipodi:namedview
   id="namedview1"
   pagecolor="#000000"
   bordercolor="#000000"
   borderopacity="0.25"
   inkscape:showpageshadow="2"
   inkscape:pageopacity="0.0"
   inkscape:pagecheckerboard="0"
   inkscape:deskcolor="#d1d1d1"
   inkscape:zoom="1.9570312"
   inkscape:cx="128"
   inkscape:cy="128"
   inkscape:window-width="1366"
   inkscape:window-height="710"
   inkscape:window-x="0"
   inkscape:window-y="0"
   inkscape:window-maximized="1"
   inkscape:current-layer="svg1" />
<g
   style="opacity:1;fill:none;fill-rule:nonzero;stroke:none;stroke-width:0;stroke-linecap:butt;stroke-linejoin:miter;stroke-miterlimit:10;stroke-dasharray:none"
   transform="matrix(-2.81,0,0,2.81,255.42919,1.4065934)"
   id="g1">
	<path
   d="m 79.191,90.023 c -0.78,0 -1.526,-0.307 -2.084,-0.865 l -8.425,-8.424 c -0.624,-0.626 -0.934,-1.487 -0.851,-2.365 l 0.401,-4.212 -2.609,0.508 c -0.879,0.157 -1.779,-0.088 -2.457,-0.678 -0.677,-0.589 -1.047,-1.441 -1.013,-2.338 l 0.161,-4.256 -4.619,0.688 c -0.914,0.132 -1.848,-0.183 -2.5,-0.836 l -4.44,-4.439 c -0.708,-0.71 -1.007,-1.717 -0.801,-2.694 l 0.839,-4.011 -3.977,0.875 c -0.981,0.207 -1.985,-0.094 -2.692,-0.801 l -3.29,-3.29 C 30.113,58.216 16.939,56.118 8.424,47.602 -2.542,36.636 -2.542,18.792 8.424,7.826 19.389,-3.14 37.234,-3.14 48.2,7.826 c 8.246,8.247 10.512,20.702 5.797,31.303 l 35.339,35.338 c 0.557,0.557 0.864,1.298 0.864,2.087 v 9.641 c 0,1.509 -1.132,2.771 -2.632,2.934 l -8.055,0.875 c -0.107,0.013 -0.215,0.019 -0.322,0.019 z M 68.271,71.208 c 0.734,0 1.438,0.273 1.991,0.782 0.684,0.631 1.026,1.524 0.937,2.45 l -0.401,4.21 8.416,8.399 8.004,-0.881 V 76.554 L 50.397,39.747 50.867,38.79 c 4.743,-9.66 2.824,-21.255 -4.774,-28.854 -9.804,-9.804 -25.757,-9.803 -35.56,0 -9.804,9.804 -9.804,25.756 0,35.56 7.849,7.849 20.129,9.598 29.865,4.257 l 0.98,-0.539 4.855,4.854 3.985,-0.847 c 0.979,-0.208 1.985,0.094 2.691,0.801 0.707,0.707 1.007,1.713 0.803,2.691 l -0.839,4.014 4.431,4.412 4.628,-0.666 c 0.87,-0.123 1.739,0.144 2.39,0.732 0.65,0.586 1.005,1.426 0.972,2.301 l -0.161,4.256 2.609,-0.505 c 0.176,-0.033 0.354,-0.049 0.529,-0.049 z M 22.452,27.983 c -2.142,0 -4.284,-0.816 -5.914,-2.446 -3.261,-3.261 -3.261,-8.567 0,-11.828 3.261,-3.26 8.567,-3.26 11.828,0 3.261,3.261 3.261,8.567 0,11.828 -1.631,1.631 -3.773,2.446 -5.914,2.446 z m 0,-13.74 c -1.379,0 -2.757,0.525 -3.806,1.574 -2.099,2.099 -2.099,5.514 0,7.612 2.099,2.098 5.512,2.099 7.612,0 2.099,-2.099 2.099,-5.514 0,-7.612 -1.05,-1.049 -2.428,-1.574 -3.806,-1.574 z"
   style="opacity:1;fill:#ffffff;fill-rule:nonzero;stroke:none;stroke-width:1;stroke-linecap:butt;stroke-linejoin:miter;stroke-miterlimit:10;stroke-dasharray:none;fill-opacity:1"
   stroke-linecap="round"
   id="path1" />
</g>
</svg>
