<?xml version="1.0" encoding="UTF-8" standalone="no"?>
<svg
   version="1.1"
   width="256"
   height="256"
   viewBox="0 0 256 256"
   xml:space="preserve"
   id="svg1"
   sodipodi:docname="key-black.svg"
   inkscape:version="1.4.2 (ebf0e940d0, 2025-05-08)"
   xmlns:inkscape="http://www.inkscape.org/namespaces/inkscape"
   xmlns:sodipodi="http://sodipodi.sourceforge.net/DTD/sodipodi-0.dtd"
   xmlns="http://www.w3.org/2000/svg"
   xmlns:svg="http://www.w3.org/2000/svg"><defs
   id="defs1" /><sodipodi:namedview
   id="namedview1"
   pagecolor="#ffffff"
   bordercolor="#000000"
   borderopacity="0.25"
   inkscape:showpageshadow="2"
   inkscape:pageopacity="0.0"
   inkscape:pagecheckerboard="0"
   inkscape:deskcolor="#d1d1d1"
   inkscape:zoom="20.209396"
   inkscape:cx="127.88606"
   inkscape:cy="109.87463"
   inkscape:window-width="1366"
   inkscape:window-height="710"
   inkscape:window-x="0"
   inkscape:window-y="0"
   inkscape:window-maximized="1"
   inkscape:current-layer="g1" />
<g
   style="opacity:1;fill:none;fill-rule:nonzero;stroke:none;stroke-width:0;stroke-linecap:butt;stroke-linejoin:miter;stroke-miterlimit:10;stroke-dasharray:none"
   transform="matrix(-2.81,0,0,2.81,255.42919,1.4065934)"
   id="g1">
	<path
   d="m 48.425438,42.738146 c -0.07402,0 -0.144814,-0.02913 -0.197767,-0.08209 l -0.799512,-0.799417 c -0.05922,-0.05941 -0.08863,-0.141113 -0.08076,-0.224433 l 0.03805,-0.399709 -0.247588,0.04821 c -0.08342,0.0149 -0.168823,-0.0084 -0.233163,-0.06434 -0.06425,-0.05589 -0.09936,-0.136748 -0.09613,-0.221871 l 0.01528,-0.403884 -0.438332,0.06529 c -0.08674,0.01253 -0.175371,-0.01737 -0.237244,-0.07933 l -0.421345,-0.42125 c -0.06719,-0.06738 -0.09556,-0.16294 -0.07601,-0.255655 l 0.07962,-0.380634 -0.377408,0.08304 c -0.09309,0.01964 -0.188371,-0.0089 -0.255464,-0.07601 L 44.785452,39.21385 c -1.017397,0.505899 -2.267578,0.306803 -3.075631,-0.501344 -1.040647,-1.040647 -1.040647,-2.734 0,-3.774647 1.040552,-1.040647 2.733999,-1.040647 3.774647,0 0.782525,0.78262 0.997563,1.96457 0.550121,2.970579 l 3.353586,3.353491 c 0.05286,0.05286 0.08199,0.123178 0.08199,0.198052 v 0.914907 c 0,0.143201 -0.107425,0.262962 -0.249771,0.27843 l -0.7644,0.08304 c -0.01015,0.0012 -0.0204,0.0018 -0.03056,0.0018 z m -1.036282,-1.785498 c 0.06965,0 0.136463,0.02591 0.188941,0.07421 0.06491,0.05988 0.09737,0.144624 0.08892,0.232499 l -0.03805,0.399519 0.798659,0.797045 0.75956,-0.0836 v -0.912345 l -3.494224,-3.492896 0.0446,-0.09082 c 0.4501,-0.916711 0.267991,-2.017048 -0.453041,-2.738175 -0.930376,-0.930376 -2.444277,-0.930281 -3.374558,0 -0.930376,0.930376 -0.930376,2.444182 0,3.374558 0.744851,0.744851 1.910193,0.910827 2.834116,0.403979 l 0.093,-0.05115 0.460728,0.460633 0.378167,-0.08038 c 0.09291,-0.01974 0.188372,0.0089 0.255369,0.07601 0.06709,0.06709 0.09556,0.16256 0.0762,0.25537 l -0.07962,0.380919 0.420491,0.418688 0.439186,-0.0632 c 0.08256,-0.01167 0.165027,0.01367 0.226806,0.06947 0.06168,0.05561 0.09537,0.135324 0.09224,0.218359 l -0.01528,0.403884 0.247588,-0.04792 c 0.0167,-0.0031 0.03359,-0.0046 0.0502,-0.0046 z M 43.041043,36.8507 c -0.20327,0 -0.406541,-0.07744 -0.561224,-0.23212 -0.309461,-0.309461 -0.309461,-0.812988 0,-1.122449 0.309461,-0.309366 0.812988,-0.309366 1.122449,0 0.309461,0.309461 0.309461,0.812988 0,1.122449 -0.154778,0.154778 -0.358049,0.23212 -0.561225,0.23212 z m 0,-1.303893 c -0.130864,0 -0.261632,0.04982 -0.36118,0.149368 -0.19919,0.199191 -0.19919,0.523266 0,0.722361 0.19919,0.199095 0.523076,0.19919 0.72236,0 0.199191,-0.19919 0.199191,-0.523265 0,-0.722361 -0.09964,-0.09955 -0.230411,-0.149368 -0.36118,-0.149368 z"
   style="display:none;opacity:1;fill:#000000;fill-rule:nonzero;stroke:none;stroke-width:0.0948976;stroke-linecap:butt;stroke-linejoin:miter;stroke-miterlimit:10;stroke-dasharray:none"
   stroke-linecap="round"
   id="path1"
   sodipodi:insensitive="true" />
<path
   id="path2"
   style="display:none;fill:none;stroke:#000000;stroke-width:0.266904;stroke-dasharray:none;stroke-opacity:1"
   d="m 43.038079,35.372292 a 0.64891976,0.64891976 0 0 1 0.649188,0.648493 0.64891976,0.64891976 0 0 1 -0.649188,0.649188 0.64891976,0.64891976 0 0 1 -0.648493,-0.649188 0.64891976,0.64891976 0 0 1 0.648493,-0.648493 z"
   sodipodi:insensitive="true" /><path
   id="path5"
   style="display:inline;fill:none;stroke:#000000;stroke-width:0.26690391;stroke-dasharray:none;stroke-opacity:1"
   d="m 43.619151,34.313017 c 1.371161,7.6e-5 2.482687,1.111602 2.482763,2.482763 5.8e-5,0.427116 -0.110067,0.847024 -0.319729,1.219139 1.227916,1.048166 2.37498,2.238062 3.542732,3.376612 l -0.01807,1.091943 -0.915397,0.10565 -0.862572,-0.792371 -0.03545,-0.651274 -0.528247,0.01738 -0.03545,-0.704098 -0.633897,0.03475 -0.492799,-0.457351 0.05282,-0.704793 -0.616521,0.08827 -0.439974,-0.405222 c 0,0 -0.738958,0.264158 -1.180216,0.264124 -1.37116,-7.7e-5 -2.482685,-1.111602 -2.482762,-2.482762 7.6e-5,-1.37116 1.111602,-2.482686 2.482762,-2.482763 z m -0.581072,1.059275 a 0.64891976,0.64891976 0 0 0 -0.648493,0.648493 0.64891976,0.64891976 0 0 0 0.648493,0.649188 0.64891976,0.64891976 0 0 0 0.649188,-0.649188 0.64891976,0.64891976 0 0 0 -0.649188,-0.648493 z" /></g>
</svg>
